<?xml version="1.0" encoding="UTF-8"?>
<svg xmlns="http://www.w3.org/2000/svg" xmlns:xlink="http://www.w3.org/1999/xlink" viewBox="0 0 40 40" width="40px" height="40px">
<g id="surface28962171">
<path style=" stroke:none;fill-rule:nonzero;fill:rgb(100%,100%,100%);fill-opacity:1;" d="M 12.800781 2.398438 C 7.066406 2.398438 2.398438 7.066406 2.398438 12.800781 L 2.398438 27.199219 C 2.398438 32.933594 7.066406 37.601562 12.800781 37.601562 L 27.199219 37.601562 C 32.933594 37.601562 37.601562 32.933594 37.601562 27.199219 L 37.601562 12.800781 C 37.601562 7.066406 32.933594 2.398438 27.199219 2.398438 Z M 12.800781 4 L 27.199219 4 C 32.070312 4 36 7.929688 36 12.800781 L 36 27.199219 C 36 32.070312 32.070312 36 27.199219 36 L 12.800781 36 C 7.929688 36 4 32.070312 4 27.199219 L 4 12.800781 C 4 7.929688 7.929688 4 12.800781 4 Z M 29.601562 8.800781 C 28.714844 8.800781 28 9.515625 28 10.398438 C 28 11.285156 28.714844 12 29.601562 12 C 30.484375 12 31.199219 11.285156 31.199219 10.398438 C 31.199219 9.515625 30.484375 8.800781 29.601562 8.800781 Z M 20 11.199219 C 15.148438 11.199219 11.199219 15.148438 11.199219 20 C 11.199219 24.851562 15.148438 28.800781 20 28.800781 C 24.851562 28.800781 28.800781 24.851562 28.800781 20 C 28.800781 15.148438 24.851562 11.199219 20 11.199219 Z M 20 12.800781 C 23.984375 12.800781 27.199219 16.015625 27.199219 20 C 27.199219 23.984375 23.984375 27.199219 20 27.199219 C 16.015625 27.199219 12.800781 23.984375 12.800781 20 C 12.800781 16.015625 16.015625 12.800781 20 12.800781 Z M 20 12.800781 "/>
</g>
</svg>
